<svg width="128" height="129" viewBox="0 0 128 129" fill="none" xmlns="http://www.w3.org/2000/svg">
<g clip-path="url(#clip0_2332_48808)">
<path d="M0 64.86C0 34.6901 0 19.6052 9.37258 10.2326C18.7452 0.859985 33.8301 0.859985 64 0.859985C94.1699 0.859985 109.255 0.859985 118.627 10.2326C128 19.6052 128 34.6901 128 64.86C128 95.0299 128 110.115 118.627 119.487C109.255 128.86 94.1699 128.86 64 128.86C33.8301 128.86 18.7452 128.86 9.37258 119.487C0 110.115 0 95.0299 0 64.86Z" fill="#2C73DB"/>
<path d="M107.761 52.9183C107.328 52.3901 106.682 52.0818 106.004 52.0818H97.387C95.2606 46.4732 92.4903 40.978 89.3414 38.9037C78.4485 31.7377 49.5555 31.7377 38.6626 38.9037C35.5115 40.9802 32.7525 46.4823 30.6147 52.0818H21.9979C21.3132 52.0818 20.6694 52.3901 20.2409 52.9183C19.8102 53.4442 19.6379 54.1402 19.7785 54.809L21.0548 60.9933C21.2724 62.0475 22.2019 62.8001 23.2742 62.8001H25.8268C23.3626 65.643 22.1679 69.2226 22.152 72.8044C22.1361 77.2296 23.816 81.2286 26.8878 84.0578C26.9218 84.0873 26.9558 84.1077 26.9875 84.1372V92.7903C26.9875 94.6651 28.511 96.1908 30.388 96.1908H38.3361C40.2132 96.1908 41.7366 94.6651 41.7366 92.7903V89.3127H86.2628V92.7903C86.2628 94.6651 87.7863 96.1908 89.6633 96.1908H97.6115C99.484 96.1908 101.012 94.6651 101.012 92.7903V84.3072C104.272 81.3216 105.829 77.2137 105.85 73.1127C105.863 69.4085 104.614 65.6974 102.005 62.7956H104.728C105.804 62.7956 106.734 62.043 106.947 60.9865L108.226 54.8044C108.357 54.1402 108.192 53.4488 107.761 52.9183ZM42.3963 44.5825C51.079 38.8674 76.9205 38.8674 85.5986 44.5825C87.2853 45.6888 89.4548 50.1616 91.4429 55.6387H36.5565C38.5402 50.1639 40.7097 45.6933 42.3963 44.5825ZM32.2266 73.6568C32.2266 69.9616 35.2236 66.9692 38.9165 66.9692C42.614 66.9692 45.6064 69.9616 45.6064 73.6568C45.6064 77.352 42.614 80.3467 38.9165 80.3467C35.2236 80.3467 32.2266 77.352 32.2266 73.6568ZM89.1714 80.3467C85.4785 80.3467 82.4815 77.352 82.4815 73.6568C82.4815 69.9616 85.4785 66.9692 89.1714 66.9692C92.8689 66.9692 95.8613 69.9616 95.8613 73.6568C95.8613 77.352 92.8643 80.3467 89.1714 80.3467Z" fill="white"/>
</g>
<defs>
<clipPath id="clip0_2332_48808">
<rect width="128" height="128" fill="white" transform="translate(0 0.859985)"/>
</clipPath>
</defs>
</svg>
