<svg width="17" height="15" viewBox="0 0 17 15" fill="none" xmlns="http://www.w3.org/2000/svg">
    <path
        d="M2.08947 14.3178C1.66849 14.3178 1.31217 14.1719 1.02051 13.8803C0.728841 13.5886 0.583008 13.2323 0.583008 12.8113V1.65757C0.583008 1.2366 0.728841 0.880282 1.02051 0.588615C1.31217 0.296949 1.66849 0.151115 2.08947 0.151115H14.9099C15.3309 0.151115 15.6872 0.296949 15.9788 0.588615C16.2705 0.880282 16.4163 1.2366 16.4163 1.65757V12.8113C16.4163 13.2323 16.2705 13.5886 15.9788 13.8803C15.6872 14.1719 15.3309 14.3178 14.9099 14.3178H2.08947ZM5.99967 11.1928C6.17676 11.1928 6.32516 11.1329 6.44488 11.013C6.56474 10.8931 6.62467 10.7447 6.62467 10.5676C6.62467 10.3904 6.56474 10.2419 6.44488 10.1224C6.32516 10.0026 6.17676 9.94278 5.99967 9.94278H3.49967C3.32259 9.94278 3.17419 10.0027 3.05447 10.1226C2.9346 10.2424 2.87467 10.3909 2.87467 10.568C2.87467 10.7452 2.9346 10.8936 3.05447 11.0132C3.17419 11.1329 3.32259 11.1928 3.49967 11.1928H5.99967ZM10.6247 7.67674L9.87634 6.92841C9.75231 6.80452 9.60592 6.74334 9.43717 6.74487C9.26842 6.74653 9.12204 6.81195 8.99801 6.94112C8.88273 7.06514 8.82426 7.21153 8.82259 7.38028C8.82106 7.54903 8.88224 7.69542 9.00613 7.81945L10.0974 8.9107C10.2481 9.06139 10.4238 9.13674 10.6247 9.13674C10.8255 9.13674 11.0013 9.06139 11.152 8.9107L14.014 6.04862C14.1379 5.92459 14.2013 5.77952 14.204 5.61341C14.2067 5.4473 14.1434 5.29959 14.014 5.17028C13.8847 5.04112 13.7363 4.97653 13.5686 4.97653C13.4009 4.97653 13.2523 5.04112 13.123 5.17028L10.6247 7.67674ZM5.99967 7.85945C6.17676 7.85945 6.32516 7.79952 6.44488 7.67966C6.56474 7.5598 6.62467 7.41132 6.62467 7.23424C6.62467 7.05702 6.56474 6.90862 6.44488 6.78903C6.32516 6.66931 6.17676 6.60945 5.99967 6.60945H3.49967C3.32259 6.60945 3.17419 6.66938 3.05447 6.78924C2.9346 6.9091 2.87467 7.05757 2.87467 7.23466C2.87467 7.41188 2.9346 7.56028 3.05447 7.67987C3.17419 7.79959 3.32259 7.85945 3.49967 7.85945H5.99967ZM5.99967 4.52612C6.17676 4.52612 6.32516 4.46619 6.44488 4.34632C6.56474 4.22646 6.62467 4.07799 6.62467 3.90091C6.62467 3.72368 6.56474 3.57528 6.44488 3.4557C6.32516 3.33598 6.17676 3.27612 5.99967 3.27612H3.49967C3.32259 3.27612 3.17419 3.33605 3.05447 3.45591C2.9346 3.57577 2.87467 3.72424 2.87467 3.90132C2.87467 4.07855 2.9346 4.22695 3.05447 4.34653C3.17419 4.46625 3.32259 4.52612 3.49967 4.52612H5.99967Z"
        fill="#F7FAFF" />
</svg>