<svg width="14" height="20" viewBox="0 0 14 20" fill="none" xmlns="http://www.w3.org/2000/svg">
<path d="M2.20716 19.5C1.702 19.5 1.27441 19.325 0.924414 18.975C0.574414 18.625 0.399414 18.1974 0.399414 17.6923V8.14425C0.399414 7.63908 0.574414 7.2115 0.924414 6.8615C1.27441 6.5115 1.702 6.3365 2.20716 6.3365H11.5917C12.0968 6.3365 12.5244 6.5115 12.8744 6.8615C13.2244 7.2115 13.3994 7.63908 13.3994 8.14425V17.6923C13.3994 18.1974 13.2244 18.625 12.8744 18.975C12.5244 19.325 12.0968 19.5 11.5917 19.5H2.20716ZM6.47641 16.7213H7.32241C7.44041 16.7213 7.54366 16.677 7.63216 16.5885C7.7205 16.5 7.76466 16.3968 7.76466 16.2788C7.76466 16.1609 7.7205 16.0578 7.63216 15.9693C7.54366 15.8808 7.44041 15.8365 7.32241 15.8365H6.47641C6.35841 15.8365 6.25516 15.8808 6.16666 15.9693C6.07833 16.0578 6.03416 16.1609 6.03416 16.2788C6.03416 16.3968 6.07833 16.5 6.16666 16.5885C6.25516 16.677 6.35841 16.7213 6.47641 16.7213ZM6.34941 14.8365H7.44941C7.53275 14.8365 7.6045 14.8048 7.66466 14.7413C7.725 14.6779 7.76033 14.6046 7.77066 14.5212C7.8115 14.2741 7.89316 14.0402 8.01566 13.8195C8.13816 13.5988 8.26608 13.3769 8.39941 13.1538C8.57375 12.8898 8.73108 12.6128 8.87141 12.323C9.01191 12.0333 9.08216 11.7295 9.08216 11.4115C9.08216 10.8087 8.87116 10.2977 8.44916 9.8785C8.02716 9.4595 7.51058 9.25 6.89941 9.25C6.28558 9.25 5.76675 9.45867 5.34291 9.876C4.91908 10.2933 4.70716 10.8052 4.70716 11.4115C4.70716 11.7273 4.77991 12.0281 4.92541 12.3138C5.07091 12.5994 5.22575 12.8743 5.38991 13.1385C5.52325 13.3615 5.64983 13.5876 5.76966 13.8168C5.8895 14.0459 5.97058 14.2839 6.01291 14.5307C6.03975 14.6141 6.08175 14.6859 6.13891 14.7462C6.19591 14.8064 6.26608 14.8365 6.34941 14.8365ZM1.94741 4.60575C1.77525 4.60575 1.63283 4.5495 1.52016 4.437C1.40766 4.3245 1.35141 4.18217 1.35141 4.01C1.35141 3.838 1.40766 3.69558 1.52016 3.58275C1.63283 3.46992 1.77525 3.4135 1.94741 3.4135H11.8417C12.0138 3.4135 12.1562 3.46975 12.2689 3.58225C12.3816 3.69475 12.4379 3.83708 12.4379 4.00925C12.4379 4.18125 12.3816 4.32367 12.2689 4.4365C12.1562 4.54933 12.0138 4.60575 11.8417 4.60575H1.94741ZM2.90916 1.69225C2.73683 1.69225 2.59441 1.636 2.48191 1.5235C2.36925 1.411 2.31291 1.26875 2.31291 1.09675C2.31291 0.924583 2.36925 0.782084 2.48191 0.66925C2.59441 0.556417 2.73683 0.5 2.90916 0.5H10.8802C11.0523 0.5 11.1947 0.55625 11.3074 0.66875C11.4201 0.78125 11.4764 0.923584 11.4764 1.09575C11.4764 1.26775 11.4201 1.41017 11.3074 1.523C11.1947 1.63583 11.0523 1.69225 10.8802 1.69225H2.90916Z" fill="#6B7397"/>
</svg>
