<svg width="6" height="10" viewBox="0 0 6 10" fill="none" xmlns="http://www.w3.org/2000/svg">
<path d="M3.55949 5.24577L0.309489 8.49577C0.156711 8.64855 0.0803223 8.84299 0.0803223 9.0791C0.0803223 9.31521 0.156711 9.50966 0.309489 9.66243C0.462267 9.81521 0.656711 9.8916 0.892822 9.8916C1.12893 9.8916 1.32338 9.81521 1.47616 9.66243L5.30949 5.8291C5.39282 5.74577 5.45185 5.65549 5.48657 5.55827C5.52129 5.46105 5.53866 5.35688 5.53866 5.24577C5.53866 5.13466 5.52129 5.03049 5.48657 4.93327C5.45185 4.83605 5.39282 4.74577 5.30949 4.66243L1.47616 0.829102C1.32338 0.676324 1.12893 0.599935 0.892822 0.599935C0.656711 0.599935 0.462267 0.676324 0.309489 0.829102C0.156711 0.981879 0.0803223 1.17632 0.0803223 1.41243C0.0803223 1.64855 0.156711 1.84299 0.309489 1.99577L3.55949 5.24577Z" fill="white"/>
</svg>
