<svg width="6" height="10" viewBox="0 0 6 10" fill="none" xmlns="http://www.w3.org/2000/svg">
<path d="M3.4987 5.33378L0.248698 8.58378C0.0959201 8.73656 0.0195312 8.931 0.0195312 9.16711C0.0195312 9.40323 0.0959201 9.59767 0.248698 9.75045C0.401476 9.90323 0.59592 9.97961 0.832031 9.97961C1.06814 9.97961 1.26259 9.90323 1.41536 9.75045L5.2487 5.91711C5.33203 5.83378 5.39106 5.7435 5.42578 5.64628C5.4605 5.54906 5.47786 5.44489 5.47786 5.33378C5.47786 5.22267 5.4605 5.1185 5.42578 5.02128C5.39106 4.92406 5.33203 4.83378 5.2487 4.75045L1.41536 0.917114C1.26259 0.764337 1.06814 0.687947 0.832031 0.687947C0.59592 0.687947 0.401476 0.764337 0.248698 0.917114C0.0959201 1.06989 0.0195312 1.26434 0.0195312 1.50045C0.0195312 1.73656 0.0959201 1.931 0.248698 2.08378L3.4987 5.33378Z" fill="white"/>
</svg>
