<svg width="18" height="19" viewBox="0 0 18 19" fill="none" xmlns="http://www.w3.org/2000/svg">
<path d="M9.00008 18.3119C7.79543 18.3119 6.66334 18.0834 5.60383 17.6263C4.54432 17.1692 3.62269 16.5488 2.83894 15.7652C2.05519 14.9816 1.43475 14.0601 0.977644 13.0008C0.52038 11.9414 0.291748 10.8095 0.291748 9.6052C0.291748 8.4007 0.520304 7.26854 0.977415 6.20872C1.43453 5.1489 2.05488 4.22704 2.83848 3.44314C3.62207 2.65924 4.54355 2.03858 5.60291 1.58116C6.66228 1.1239 7.79413 0.895264 8.99848 0.895264C10.203 0.895264 11.3351 1.1239 12.395 1.58116C13.4548 2.03827 14.3766 2.6587 15.1605 3.44245C15.9444 4.2262 16.5651 5.14783 17.0225 6.20735C17.4798 7.26686 17.7084 8.39894 17.7084 9.6036V10.7212C17.7084 11.558 17.4211 12.2684 16.8465 12.8525C16.2719 13.4366 15.5662 13.7286 14.7292 13.7286C14.1886 13.7286 13.6873 13.5964 13.2255 13.3319C12.7636 13.0675 12.3987 12.7037 12.1307 12.2406C11.7347 12.7132 11.2668 13.0793 10.7269 13.339C10.1868 13.5987 9.61119 13.7286 9.00008 13.7286C7.85547 13.7286 6.88182 13.3272 6.07912 12.5246C5.27643 11.7219 4.87508 10.7482 4.87508 9.6036C4.87508 8.45899 5.27643 7.48533 6.07912 6.68264C6.88182 5.87994 7.85547 5.4786 9.00008 5.4786C10.1447 5.4786 11.1183 5.87994 11.921 6.68264C12.7237 7.48533 13.1251 8.45899 13.1251 9.6036V10.7212C13.1251 11.1713 13.2799 11.5559 13.5896 11.8751C13.8993 12.1941 14.2792 12.3536 14.7292 12.3536C15.1793 12.3536 15.5592 12.1941 15.8689 11.8751C16.1786 11.5559 16.3334 11.1713 16.3334 10.7212V9.6036C16.3334 7.55637 15.623 5.82235 14.2022 4.40151C12.7813 2.98068 11.0473 2.27026 9.00008 2.27026C6.95286 2.27026 5.21883 2.98068 3.798 4.40151C2.37716 5.82235 1.66675 7.55637 1.66675 9.6036C1.66675 11.6508 2.37716 13.3848 3.798 14.8057C5.21883 16.2265 6.95286 16.9369 9.00008 16.9369H12.8959C13.0907 16.9369 13.254 17.0029 13.3859 17.1347C13.5176 17.2665 13.5834 17.4299 13.5834 17.6247C13.5834 17.8196 13.5176 17.9828 13.3859 18.1144C13.254 18.2461 13.0907 18.3119 12.8959 18.3119H9.00008ZM9.00008 12.3536C9.76397 12.3536 10.4133 12.0862 10.948 11.5515C11.4827 11.0168 11.7501 10.3675 11.7501 9.6036C11.7501 8.83971 11.4827 8.1904 10.948 7.65568C10.4133 7.12096 9.76397 6.8536 9.00008 6.8536C8.23619 6.8536 7.58689 7.12096 7.05216 7.65568C6.51744 8.1904 6.25008 8.83971 6.25008 9.6036C6.25008 10.3675 6.51744 11.0168 7.05216 11.5515C7.58689 12.0862 8.23619 12.3536 9.00008 12.3536Z" fill="#AAB3C5"/>
</svg>
