<svg width="21" height="21" viewBox="0 0 21 21" fill="none" xmlns="http://www.w3.org/2000/svg">
<path d="M10.4531 0.249451C4.64311 0.249451 0.433105 4.98945 0.433105 10.2495C0.433105 11.9295 0.923105 13.6595 1.78311 15.2395C1.94311 15.4995 1.96311 15.8295 1.85311 16.1395L1.18311 18.3794C1.03311 18.9195 1.49311 19.3195 2.00311 19.1595L4.02311 18.5595C4.57311 18.3794 5.00311 18.6095 5.51411 18.9195C6.97411 19.7795 8.79311 20.2194 10.4331 20.2194C15.3931 20.2194 20.4331 16.3895 20.4331 10.2195C20.4331 4.89945 16.1331 0.249451 10.4531 0.249451Z" fill="#081735"/>
<path d="M5.80344 8.97955C6.51344 8.97955 7.08344 9.54955 7.08344 10.2596C7.08344 10.9596 6.51344 11.5296 5.80344 11.5396C5.10344 11.5396 4.52344 10.9596 4.52344 10.2596C4.52344 9.54955 5.09344 8.97955 5.80344 8.97955ZM10.4138 8.97955C11.1238 8.97955 11.6938 9.54955 11.6938 10.2596C11.6938 10.9596 11.1238 11.5396 10.4138 11.5396C9.70384 11.5296 9.13384 10.9596 9.13384 10.2496C9.13384 9.54955 9.71384 8.96955 10.4138 8.97955ZM15.0236 8.97955C15.7336 8.97955 16.3036 9.54955 16.3036 10.2596C16.3036 10.9596 15.7336 11.5396 15.0236 11.5396C14.3136 11.5396 13.7436 10.9596 13.7436 10.2596C13.7436 9.54955 14.3136 8.97955 15.0236 8.97955Z" fill="#8E99AB"/>
</svg>
