<svg width="23" height="23" viewBox="0 0 23 23" fill="none" xmlns="http://www.w3.org/2000/svg">
<path d="M11.7221 0C5.27737 0 0.607422 5.25785 0.607422 11.0925C0.607422 12.956 1.15095 14.875 2.10491 16.6277C2.28239 16.9161 2.30458 17.2821 2.18256 17.626L1.43936 20.1107C1.27297 20.7097 1.78323 21.1534 2.34895 20.9759L4.58963 20.3104C5.19972 20.1107 5.6767 20.3658 6.24352 20.7097C7.86303 21.6637 9.88076 22.1517 11.6999 22.1517C17.2018 22.1517 22.7924 17.9033 22.7924 11.0592C22.7924 5.15802 18.0227 0 11.7221 0Z" fill="#6B7397"/>
<path d="M6.56437 9.68386C7.35194 9.68386 7.98421 10.3161 7.98421 11.1037C7.98421 11.8802 7.35194 12.5124 6.56437 12.5235C5.7879 12.5235 5.14453 11.8802 5.14453 11.1037C5.14453 10.3161 5.7768 9.68386 6.56437 9.68386ZM11.6785 9.68386C12.466 9.68386 13.0983 10.3161 13.0983 11.1037C13.0983 11.8802 12.466 12.5235 11.6785 12.5235C10.8909 12.5124 10.2586 11.8802 10.2586 11.0926C10.2586 10.3161 10.902 9.67276 11.6785 9.68386ZM16.7919 9.68386C17.5795 9.68386 18.2117 10.3161 18.2117 11.1037C18.2117 11.8802 17.5795 12.5235 16.7919 12.5235C16.0043 12.5235 15.372 11.8802 15.372 11.1037C15.372 10.3161 16.0043 9.68386 16.7919 9.68386Z" fill="#CFD3E5"/>
</svg>
