<svg width="16" height="16" viewBox="0 0 16 16" fill="none" xmlns="http://www.w3.org/2000/svg">
    <path
        d="M1.50432 15.8115C1.20461 15.8115 0.949269 15.706 0.738311 15.4951C0.527354 15.2841 0.421875 15.0288 0.421875 14.7291V1.73968C0.421875 1.43996 0.527354 1.18462 0.738311 0.973662C0.949269 0.762705 1.20461 0.657227 1.50432 0.657227H14.4937C14.7934 0.657227 15.0488 0.762705 15.2597 0.973662C15.4707 1.18462 15.5762 1.43996 15.5762 1.73968V14.7291C15.5762 15.0288 15.4707 15.2841 15.2597 15.4951C15.0488 15.706 14.7934 15.8115 14.4937 15.8115H1.50432ZM3.94958 12.9943H11.4962C11.8561 12.9943 12.1634 12.8668 12.4183 12.612C12.6732 12.3571 12.8006 12.0498 12.8006 11.6899V9.56669C12.8006 9.4131 12.7488 9.28447 12.6453 9.1808C12.5416 9.07724 12.413 9.02547 12.2594 9.02547C12.1058 9.02547 11.9772 9.07724 11.8737 9.1808C11.77 9.28447 11.7181 9.4131 11.7181 9.56669V11.6899C11.7181 11.7546 11.6973 11.8078 11.6557 11.8494C11.6141 11.8911 11.5609 11.912 11.4962 11.912H3.94958L4.88211 10.9793C4.99408 10.8674 5.04821 10.7407 5.04448 10.5992C5.04075 10.4576 4.98663 10.3308 4.88211 10.2189C4.77014 10.1069 4.64036 10.0502 4.49279 10.0489C4.34533 10.0475 4.21791 10.1004 4.1105 10.2077L2.32175 11.9966C2.25416 12.0641 2.20653 12.1353 2.17887 12.2102C2.15109 12.2851 2.1372 12.3661 2.1372 12.4532C2.1372 12.5402 2.15109 12.6211 2.17887 12.6961C2.20653 12.771 2.25416 12.8422 2.32175 12.9097L4.1105 14.6986C4.22248 14.8104 4.35111 14.8646 4.4964 14.861C4.64157 14.8572 4.77014 14.7994 4.88211 14.6874C4.98663 14.5754 5.03961 14.4475 5.04105 14.3037C5.04237 14.1598 4.98939 14.0343 4.88211 13.927L3.94958 12.9943ZM12.0485 4.55675L11.1159 5.48946C11.004 5.60132 10.9498 5.72802 10.9536 5.86958C10.9573 6.01114 11.0114 6.13791 11.1159 6.24988C11.2279 6.36186 11.3577 6.41851 11.5053 6.41983C11.6527 6.42127 11.7801 6.36835 11.8875 6.26107L13.6763 4.47214C13.7439 4.40467 13.7915 4.33347 13.8192 4.25854C13.847 4.18361 13.8609 4.1026 13.8609 4.01553C13.8609 3.92857 13.847 3.84763 13.8192 3.7727C13.7915 3.69777 13.7439 3.62657 13.6763 3.55909L11.8875 1.77017C11.7756 1.65831 11.6469 1.60419 11.5017 1.6078C11.3565 1.61153 11.2279 1.66938 11.1159 1.78135C11.0114 1.89332 10.9584 2.02123 10.957 2.16508C10.9557 2.30893 11.0087 2.43449 11.1159 2.54177L12.0485 3.47448H4.50181C4.14195 3.47448 3.8346 3.60191 3.57974 3.85677C3.32488 4.11162 3.19746 4.41898 3.19746 4.77883V6.90206C3.19746 7.05565 3.24923 7.18428 3.35279 7.28795C3.45646 7.39151 3.58509 7.44329 3.73868 7.44329C3.89227 7.44329 4.02084 7.39151 4.12439 7.28795C4.22807 7.18428 4.27991 7.05565 4.27991 6.90206V4.77883C4.27991 4.71413 4.30071 4.66097 4.34233 4.61935C4.38394 4.57762 4.4371 4.55675 4.50181 4.55675H12.0485Z"
        fill="#F7FAFF" />
</svg>