<svg width="15" height="15" viewBox="0 0 15 15" fill="none" xmlns="http://www.w3.org/2000/svg">
    <path
        d="M1.92296 14.3178C1.50741 14.3178 1.15241 14.1706 0.857962 13.8763C0.563657 13.5819 0.416504 13.2269 0.416504 12.8113V1.65757C0.416504 1.24202 0.563657 0.887018 0.857962 0.592574C1.15241 0.298268 1.50741 0.151115 1.92296 0.151115H13.0767C13.4923 0.151115 13.8473 0.298268 14.1417 0.592574C14.436 0.887018 14.5832 1.24202 14.5832 1.65757V12.8113C14.5832 13.2269 14.436 13.5819 14.1417 13.8763C13.8473 14.1706 13.4923 14.3178 13.0767 14.3178H1.92296ZM6.0415 13.0678V7.85945H1.6665V12.8113C1.6665 12.8862 1.69053 12.9476 1.73859 12.9957C1.78664 13.0438 1.8481 13.0678 1.92296 13.0678H6.0415ZM7.2915 13.0678H13.0767C13.1516 13.0678 13.213 13.0438 13.2611 12.9957C13.3091 12.9476 13.3332 12.8862 13.3332 12.8113V7.85945H7.2915V13.0678ZM1.6665 6.60945H13.3332V1.65757C13.3332 1.58271 13.3091 1.52125 13.2611 1.4732C13.213 1.42514 13.1516 1.40112 13.0767 1.40112H1.92296C1.8481 1.40112 1.78664 1.42514 1.73859 1.4732C1.69053 1.52125 1.6665 1.58271 1.6665 1.65757V6.60945Z"
        fill="#F7FAFF" />
</svg>