<svg width="18" height="18" viewBox="0 0 18 18" fill="none" xmlns="http://www.w3.org/2000/svg">
<path d="M2.60755 17.5C2.11039 17.5 1.6848 17.323 1.3308 16.969C0.976805 16.615 0.799805 16.1894 0.799805 15.6923V9.5H7.5498V17.5H2.60755ZM9.0498 17.5V9.5H17.7998V15.6923C17.7998 16.1894 17.6228 16.615 17.2688 16.969C16.9148 17.323 16.4892 17.5 15.9921 17.5H9.0498ZM0.799805 8V2.30775C0.799805 1.81058 0.976805 1.385 1.3308 1.031C1.6848 0.677 2.11039 0.5 2.60755 0.5H15.9921C16.4892 0.5 16.9148 0.677 17.2688 1.031C17.6228 1.385 17.7998 1.81058 17.7998 2.30775V8H0.799805Z" fill="#6B7397"/>
</svg>
