<svg width="20" height="16" viewBox="0 0 20 16" fill="none" xmlns="http://www.w3.org/2000/svg">
<path d="M5.00039 16C4.45039 16 3.97956 15.8042 3.58789 15.4125C3.19622 15.0208 3.00039 14.55 3.00039 14V4.75L0.375391 1.65C0.292057 1.55 0.233724 1.44583 0.200391 1.3375C0.167057 1.22917 0.150391 1.11667 0.150391 1C0.150391 0.733333 0.242057 0.5 0.425391 0.3C0.608724 0.1 0.850391 0 1.15039 0H18.0004C18.5504 0 19.0212 0.195833 19.4129 0.5875C19.8046 0.979167 20.0004 1.45 20.0004 2V14C20.0004 14.55 19.8046 15.0208 19.4129 15.4125C19.0212 15.8042 18.5504 16 18.0004 16H5.00039ZM11.8004 11H15.0004C15.2837 11 15.5212 10.9042 15.7129 10.7125C15.9046 10.5208 16.0004 10.2833 16.0004 10C16.0004 9.71667 15.9046 9.47917 15.7129 9.2875C15.5212 9.09583 15.2837 9 15.0004 9H9.42539C8.97539 9 8.66289 9.20417 8.48789 9.6125C8.31289 10.0208 8.38372 10.3833 8.70039 10.7L10.8004 12.8C10.9837 12.9833 11.2171 13.075 11.5004 13.075C11.7837 13.075 12.0171 12.9833 12.2004 12.8C12.3837 12.6167 12.4754 12.3833 12.4754 12.1C12.4754 11.8167 12.3837 11.5833 12.2004 11.4L11.8004 11ZM11.2004 5H8.00039C7.71706 5 7.47956 5.09583 7.28789 5.2875C7.09622 5.47917 7.00039 5.71667 7.00039 6C7.00039 6.28333 7.09622 6.52083 7.28789 6.7125C7.47956 6.90417 7.71706 7 8.00039 7H13.5754C14.0254 7 14.3379 6.79583 14.5129 6.3875C14.6879 5.97917 14.6171 5.61667 14.3004 5.3L12.2004 3.2C12.0171 3.01667 11.7837 2.925 11.5004 2.925C11.2171 2.925 10.9837 3.01667 10.8004 3.2C10.6171 3.38333 10.5254 3.61667 10.5254 3.9C10.5254 4.18333 10.6171 4.41667 10.8004 4.6L11.2004 5Z" fill="#2C73DB"/>
</svg>
