<svg width="20" height="14" viewBox="0 0 20 14" fill="none" xmlns="http://www.w3.org/2000/svg">
<path d="M10.002 10.9933C11.0407 10.9933 11.9229 10.6297 12.6486 9.90267C13.3743 9.1756 13.7371 8.2927 13.7371 7.25396C13.7371 6.21522 13.3736 5.33301 12.6465 4.60731C11.9195 3.88162 11.0366 3.51877 9.99784 3.51877C8.9591 3.51877 8.07688 3.88231 7.35119 4.60938C6.6255 5.33645 6.26265 6.21935 6.26265 7.25808C6.26265 8.29682 6.62618 9.17904 7.35325 9.90473C8.08032 10.6304 8.96322 10.9933 10.002 10.9933ZM9.9999 9.73102C9.3124 9.73102 8.72802 9.4904 8.24677 9.00915C7.76552 8.5279 7.5249 7.94352 7.5249 7.25602C7.5249 6.56852 7.76552 5.98415 8.24677 5.5029C8.72802 5.02165 9.3124 4.78102 9.9999 4.78102C10.6874 4.78102 11.2718 5.02165 11.753 5.5029C12.2343 5.98415 12.4749 6.56852 12.4749 7.25602C12.4749 7.94352 12.2343 8.5279 11.753 9.00915C11.2718 9.4904 10.6874 9.73102 9.9999 9.73102ZM9.9999 13.6727C8.07016 13.6727 6.30527 13.1579 4.70523 12.1283C3.10519 11.0989 1.82804 9.74454 0.873793 8.06521C0.797405 7.93351 0.741564 7.80083 0.706273 7.66715C0.671134 7.53347 0.653564 7.39627 0.653564 7.25556C0.653564 7.11486 0.671134 6.97781 0.706273 6.84444C0.741564 6.71106 0.797405 6.57853 0.873793 6.44683C1.82804 4.7675 3.10519 3.41313 4.70523 2.38371C6.30527 1.35414 8.07016 0.839355 9.9999 0.839355C11.9296 0.839355 13.6945 1.35414 15.2946 2.38371C16.8946 3.41313 18.1718 4.7675 19.126 6.44683C19.2024 6.57853 19.2582 6.71122 19.2935 6.8449C19.3287 6.97858 19.3462 7.11577 19.3462 7.25648C19.3462 7.39719 19.3287 7.53423 19.2935 7.6676C19.2582 7.80098 19.2024 7.93351 19.126 8.06521C18.1718 9.74454 16.8946 11.0989 15.2946 12.1283C13.6945 13.1579 11.9296 13.6727 9.9999 13.6727ZM9.9999 12.2977C11.7263 12.2977 13.3114 11.8432 14.7551 10.9341C16.1989 10.0251 17.3027 8.79908 18.0666 7.25602C17.3027 5.71297 16.1989 4.48692 14.7551 3.5779C13.3114 2.66887 11.7263 2.21436 9.9999 2.21436C8.27351 2.21436 6.68844 2.66887 5.24469 3.5779C3.80094 4.48692 2.69712 5.71297 1.93323 7.25602C2.69712 8.79908 3.80094 10.0251 5.24469 10.9341C6.68844 11.8432 8.27351 12.2977 9.9999 12.2977Z" fill="#AAB3C5"/>
</svg>
