<svg width="44" height="44" viewBox="0 0 44 44" fill="none" xmlns="http://www.w3.org/2000/svg">
<g clip-path="url(#clip0_2332_48777)">
<path d="M0.444092 21.7139C0.444092 11.5523 0.444092 6.47155 3.60088 3.31475C6.75768 0.157959 11.8384 0.157959 22 0.157959C32.1616 0.157959 37.2424 0.157959 40.399 3.31475C43.5559 6.47155 43.5559 11.5523 43.5559 21.7139C43.5559 31.8754 43.5559 36.9563 40.399 40.1128C37.2424 43.2698 32.1616 43.2698 22 43.2698C11.8384 43.2698 6.75768 43.2698 3.60088 40.1128C0.444092 36.9563 0.444092 31.8754 0.444092 21.7139Z" fill="#2C73DB"/>
<path d="M36.7392 17.6918C36.5934 17.5139 36.3757 17.41 36.1474 17.41H33.2452C32.529 15.521 31.5959 13.6701 30.5353 12.9715C26.8665 10.5579 17.135 10.5579 13.4661 12.9715C12.4048 13.6709 11.4756 15.524 10.7555 17.41H7.85328C7.62269 17.41 7.40584 17.5139 7.26153 17.6918C7.11645 17.8689 7.05843 18.1033 7.10577 18.3286L7.53564 20.4115C7.60895 20.7666 7.922 21.0201 8.28316 21.0201H9.14292C8.31294 21.9776 7.91055 23.1832 7.9052 24.3896C7.89986 25.8801 8.46565 27.227 9.50026 28.1799C9.51172 28.1898 9.52317 28.1967 9.53386 28.2066V31.1211C9.53386 31.7526 10.047 32.2664 10.6792 32.2664H13.3562C13.9884 32.2664 14.5015 31.7526 14.5015 31.1211V29.9498H29.4984V31.1211C29.4984 31.7526 30.0115 32.2664 30.6438 32.2664H33.3208C33.9515 32.2664 34.4661 31.7526 34.4661 31.1211V28.2639C35.5641 27.2583 36.0886 25.8747 36.0955 24.4935C36.1001 23.2458 35.6794 21.9959 34.8005 21.0186H35.7176C36.0803 21.0186 36.3933 20.7651 36.4651 20.4092L36.8957 18.327C36.94 18.1033 36.8843 17.8704 36.7392 17.6918ZM14.7237 14.8842C17.6481 12.9593 26.3518 12.9593 29.2747 14.8842C29.8428 15.2568 30.5735 16.7633 31.2432 18.608H12.7568C13.4249 16.7641 14.1556 15.2583 14.7237 14.8842ZM11.2984 24.6767C11.2984 23.4321 12.3078 22.4243 13.5517 22.4243C14.797 22.4243 15.8049 23.4321 15.8049 24.6767C15.8049 25.9213 14.797 26.93 13.5517 26.93C12.3078 26.93 11.2984 25.9213 11.2984 24.6767ZM30.4781 26.93C29.2342 26.93 28.2248 25.9213 28.2248 24.6767C28.2248 23.4321 29.2342 22.4243 30.4781 22.4243C31.7234 22.4243 32.7313 23.4321 32.7313 24.6767C32.7313 25.9213 31.7219 26.93 30.4781 26.93Z" fill="white"/>
</g>
<defs>
<clipPath id="clip0_2332_48777">
<rect width="43.1118" height="43.1118" fill="white" transform="translate(0.444092 0.157959)"/>
</clipPath>
</defs>
</svg>
