<svg width="25" height="23" viewBox="0 0 25 23" fill="none" xmlns="http://www.w3.org/2000/svg">
<path d="M0.097168 19.7118V6.81202C0.097168 6.33048 0.228215 5.89787 0.49031 5.51417C0.752192 5.13068 1.10278 4.85161 1.54208 4.67695L11.3369 0.761453C11.6094 0.642184 11.895 0.58255 12.1938 0.58255C12.4926 0.58255 12.7783 0.642184 13.0508 0.761453L22.8456 4.67695C23.2849 4.85161 23.6355 5.13068 23.8974 5.51417C24.1595 5.89787 24.2905 6.33048 24.2905 6.81202V19.7118C24.2905 20.3468 24.0657 20.8892 23.616 21.3392C23.166 21.7889 22.6236 22.0137 21.9886 22.0137H17.2872V12.2189C17.2872 12.1045 17.2505 12.0106 17.177 11.9372C17.1036 11.8638 17.0097 11.827 16.8953 11.827H7.49237C7.37798 11.827 7.28407 11.8638 7.21064 11.9372C7.13722 12.0106 7.1005 12.1045 7.1005 12.2189V22.0137H2.39904C1.76407 22.0137 1.22163 21.7889 0.771716 21.3392C0.322017 20.8892 0.097168 20.3468 0.097168 19.7118ZM8.72878 22.0137V19.7609H10.9816V22.0137H8.72878ZM11.0676 18.1937V15.9409H13.3201V18.1937H11.0676ZM13.406 22.0137V19.7609H15.6589V22.0137H13.406Z" fill="#D53660"/>
</svg>
