<svg width="176" height="28" viewBox="0 0 176 28" fill="none" xmlns="http://www.w3.org/2000/svg">
<g clip-path="url(#clip0_2329_28495)">
<path d="M1.9458 25.9527V2.86098H15.1419C16.353 2.86098 17.4472 3.09781 18.4244 3.56846C19.3987 4.03911 20.1691 4.7016 20.7297 5.55596C21.2903 6.40732 21.5721 7.40557 21.5721 8.55371C21.5721 9.47402 21.4042 10.2924 21.0685 11.0119C20.7327 11.7313 20.2771 12.3249 19.7045 12.7955C19.1319 13.2662 18.4874 13.6139 17.7679 13.8388V13.9737C18.6193 14.1535 19.3777 14.4893 20.0402 14.9839C20.7027 15.4785 21.2303 16.111 21.623 16.8845C22.0158 17.6579 22.2136 18.5722 22.2136 19.6274C22.2136 21.0184 21.8958 22.1845 21.2543 23.1288C20.6158 24.0731 19.7674 24.7775 18.7122 25.2512C17.657 25.7218 16.4789 25.9587 15.1779 25.9587H1.9488L1.9458 25.9527ZM6.96403 12.184H13.628C14.2336 12.184 14.7462 12.0671 15.1599 11.8303C15.5736 11.5964 15.8883 11.2817 16.1012 10.889C16.314 10.4963 16.4219 10.0406 16.4219 9.52499C16.4219 8.64965 16.1791 7.98714 15.6965 7.53748C15.2138 7.09081 14.5813 6.86599 13.7959 6.86599H6.96403V12.184ZM6.96403 21.8458H14.2006C15.031 21.8458 15.7115 21.6089 16.2391 21.1383C16.7667 20.6676 17.0305 19.9362 17.0305 18.9499C17.0305 18.3654 16.9196 17.8617 16.6947 17.4361C16.4699 17.0104 16.1342 16.6776 15.6845 16.4408C15.2348 16.207 14.6623 16.0871 13.9668 16.0871H6.96704V21.8428L6.96403 21.8458Z" fill="#081735"/>
<path d="M31.8725 26.3574C29.9209 26.3574 28.2812 26.0246 26.9592 25.3651C25.6342 24.7026 24.6359 23.6864 23.9614 22.3194C23.2869 20.9494 22.9512 19.2107 22.9512 17.1003C22.9512 14.9899 23.2869 13.2242 23.9614 11.8662C24.6359 10.5083 25.6282 9.49802 26.9412 8.83851C28.2542 8.179 29.864 7.84325 31.7706 7.84325C33.5662 7.84325 35.0801 8.16402 36.3151 8.80254C37.5502 9.44106 38.4825 10.4303 39.1091 11.7643C39.7356 13.0983 40.0504 14.822 40.0504 16.9324V18.1435H27.6966C27.7416 19.1748 27.9035 20.0501 28.1852 20.7696C28.467 21.489 28.9047 22.0226 29.4983 22.3674C30.0918 22.7151 30.8832 22.889 31.8695 22.889C32.4091 22.889 32.8947 22.82 33.3354 22.6851C33.7731 22.5502 34.1478 22.3494 34.4625 22.0796C34.7743 21.8098 35.0231 21.474 35.203 21.0693C35.3828 20.6646 35.4728 20.206 35.4728 19.6874H40.0504C40.0504 20.8115 39.8465 21.7858 39.4448 22.6162C39.0401 23.4466 38.4795 24.136 37.7601 24.6876C37.0436 25.2362 36.1832 25.6529 35.185 25.9317C34.1867 26.2135 33.0806 26.3514 31.8695 26.3514L31.8725 26.3574ZM27.7656 15.1818H35.239C35.239 14.5073 35.155 13.9257 34.9871 13.4311C34.8193 12.9364 34.5884 12.5347 34.2977 12.22C34.0069 11.9052 33.6531 11.6774 33.2365 11.5305C32.8228 11.3836 32.3551 11.3117 31.8395 11.3117C30.9851 11.3117 30.2747 11.4525 29.7021 11.7313C29.1295 12.0131 28.6919 12.4388 28.3891 13.0114C28.0863 13.584 27.8795 14.3064 27.7656 15.1818Z" fill="#081735"/>
<path d="M41.4653 25.9527V1.61392H46.1448V25.9527H41.4653Z" fill="#081735"/>
<path d="M56.5799 26.3574C54.6493 26.3574 53.0125 26.0246 51.6635 25.3651C50.3176 24.7026 49.2953 23.6804 48.6029 22.3014C47.9074 20.9195 47.5566 19.1867 47.5566 17.1003C47.5566 15.0139 47.9044 13.2242 48.6029 11.8662C49.2983 10.5083 50.3206 9.49802 51.6635 8.83851C53.0125 8.17601 54.6493 7.84325 56.5799 7.84325C58.5104 7.84325 60.2101 8.17601 61.5441 8.83851C62.8781 9.50101 63.8944 10.5113 64.5899 11.8662C65.2853 13.2242 65.6331 14.9689 65.6331 17.1003C65.6331 19.2317 65.2853 20.9195 64.5899 22.3014C63.8944 23.6804 62.8781 24.7026 61.5441 25.3651C60.2101 26.0276 58.5524 26.3574 56.5799 26.3574ZM56.5799 22.7211C57.6111 22.7211 58.4355 22.5292 59.053 22.1485C59.6705 21.7678 60.1232 21.1833 60.417 20.3978C60.7078 19.6124 60.8547 18.6472 60.8547 17.502V16.6956C60.8547 15.5505 60.7078 14.5852 60.417 13.7998C60.1232 13.0144 59.6705 12.4268 59.053 12.0311C58.4355 11.6384 57.6111 11.4406 56.5799 11.4406C55.5486 11.4406 54.7542 11.6384 54.1397 12.0311C53.5222 12.4238 53.0665 13.0144 52.7757 13.7998C52.4849 14.5852 52.338 15.5505 52.338 16.6956V17.502C52.338 18.6472 52.4849 19.6124 52.7757 20.3978C53.0665 21.1833 53.5222 21.7648 54.1397 22.1485C54.7572 22.5292 55.5696 22.7211 56.5799 22.7211Z" fill="#081735"/>
<path d="M70.5163 25.9527L64.9614 8.24495H69.8777L72.0991 16.9294C72.213 17.3791 72.3179 17.8617 72.4198 18.3774C72.5218 18.893 72.6147 19.3546 72.7046 19.7593C72.7945 20.164 72.8605 20.4548 72.9085 20.6347H73.1423C73.2322 20.185 73.3281 19.7203 73.4271 19.2377C73.529 18.7551 73.6309 18.2964 73.7298 17.8587C73.8318 17.4211 73.9037 17.0913 73.9487 16.8635L76.0711 8.24795H80.9514L83.1398 16.8995C83.2267 17.2142 83.3197 17.6009 83.4096 18.0596C83.4995 18.5212 83.5984 18.9799 83.7124 19.4416C83.8233 19.9032 83.9132 20.2989 83.9821 20.6377H84.183C84.228 20.3229 84.3029 19.9542 84.4018 19.5255C84.5038 19.0998 84.6027 18.6621 84.7046 18.2125C84.8065 17.7658 84.9025 17.3611 84.9894 17.0014L87.1778 8.24795H91.6894L86.1675 25.9557H81.3531L79.4016 18.0446C79.3117 17.6189 79.1977 17.1423 79.0658 16.6147C78.9309 16.0871 78.814 15.5655 78.7121 15.0499C78.6132 14.5342 78.5292 14.0846 78.4603 13.7039H78.2564C78.2564 13.9047 78.2115 14.2135 78.1215 14.6302C78.0316 15.0439 77.9237 15.5385 77.8008 16.1111C77.6779 16.6836 77.528 17.3281 77.3481 18.0446L75.3276 25.9557H70.5132L70.5163 25.9527Z" fill="#081735"/>
<path d="M173.627 1.85672H100.716C99.8045 1.85672 99.0011 2.45028 98.7313 3.32263L92.1362 24.7416C91.8604 25.6409 92.5319 26.5522 93.4732 26.5522H166.385C167.296 26.5522 168.099 25.9587 168.369 25.0863L174.964 3.66736C175.24 2.76804 174.568 1.85672 173.627 1.85672Z" fill="#2C73DB"/>
<path d="M115.423 6.15551H120.453V21.6329H117.137V14.3004C117.137 13.6229 117.14 12.9424 117.149 12.2589C117.155 11.5755 117.173 10.9759 117.194 10.4663C117.218 9.95666 117.227 9.62391 117.227 9.47403H117.047C117.017 9.6389 111.81 21.6359 111.81 21.6359H108.876C108.876 21.6359 107.437 10.3943 107.344 10.0646H107.164C107.179 10.4723 103.39 21.6359 103.39 21.6359H100.23L105.062 6.15851H109.514C109.514 6.15851 111.019 16.0361 111.079 16.3359H111.259C111.289 16.0811 115.42 6.15851 115.42 6.15851L115.423 6.15551ZM134.374 13.9287C133.925 13.5899 133.412 13.3082 132.84 13.0833C132.267 12.8585 131.682 12.6636 131.08 12.4958C130.477 12.3309 129.893 12.181 129.32 12.0461C128.748 11.9112 128.232 11.7553 127.773 11.5844C127.315 11.4106 126.952 11.2097 126.691 10.9759C126.427 10.7421 126.295 10.4453 126.295 10.0856C126.295 9.77081 126.412 9.49501 126.646 9.26119C126.88 9.02736 127.219 8.8505 127.662 8.73059C128.106 8.61068 128.643 8.55072 129.275 8.55072C129.863 8.55072 130.372 8.63466 130.81 8.79953C131.245 8.96441 131.583 9.19224 131.826 9.47703C132.066 9.76181 132.189 10.1095 132.189 10.5142V10.6941H135.46V10.4243C135.46 9.6419 135.298 8.96441 134.974 8.39483C134.65 7.82226 134.204 7.34862 133.631 6.9739C133.058 6.59918 132.399 6.32339 131.646 6.14952C130.894 5.97565 130.097 5.88872 129.254 5.88872C128.352 5.88872 127.516 5.97565 126.751 6.14952C125.987 6.32339 125.306 6.59019 124.722 6.94992C124.134 7.30965 123.678 7.76831 123.358 8.32589C123.034 8.88347 122.872 9.54298 122.872 10.3104C122.872 11.0329 123.007 11.6504 123.277 12.16C123.546 12.6696 123.909 13.0923 124.359 13.4221C124.809 13.7518 125.321 14.0336 125.894 14.2674C126.466 14.5013 127.051 14.6961 127.653 14.855C128.256 15.0139 128.841 15.1668 129.413 15.3166C129.986 15.4665 130.498 15.6314 130.96 15.8143C131.419 15.9941 131.778 16.213 132.042 16.4678C132.306 16.7226 132.438 17.0553 132.438 17.46C132.438 17.6849 132.396 17.8887 132.315 18.0686C132.234 18.2485 132.105 18.4073 131.931 18.5422C131.757 18.6771 131.539 18.794 131.278 18.893C131.014 18.9919 130.714 19.0668 130.375 19.1178C130.037 19.1718 129.65 19.1957 129.212 19.1957C128.535 19.1957 127.941 19.1148 127.429 18.9469C126.916 18.782 126.529 18.5332 126.265 18.2035C126.002 17.8737 125.87 17.466 125.87 16.9864V16.7825C125.87 16.7076 125.876 16.6476 125.894 16.6027H122.554C122.539 16.6476 122.53 16.7136 122.53 16.7945V17.0314C122.53 17.9037 122.707 18.6441 123.061 19.2527C123.415 19.8612 123.903 20.3679 124.527 20.7636C125.15 21.1623 125.87 21.453 126.682 21.6329C127.495 21.8128 128.352 21.9027 129.254 21.9027C130.531 21.9027 131.667 21.7378 132.663 21.4051C133.658 21.0723 134.437 20.5477 135.01 19.8253C135.582 19.1028 135.867 18.1465 135.867 16.9594C135.867 16.2669 135.732 15.6734 135.463 15.1758C135.193 14.6781 134.83 14.2614 134.38 13.9227L134.374 13.9287ZM148.863 15.4276L152.022 21.6329H148.299L145.568 15.9911H141.257V21.6329H137.894V6.15551H146.377C147.52 6.15551 148.473 6.35936 149.231 6.76406C149.99 7.16875 150.559 7.73833 150.934 8.46679C151.309 9.19524 151.498 10.0346 151.498 10.9819C151.498 11.9891 151.273 12.8825 150.82 13.6559C150.37 14.4323 149.714 15.0199 148.857 15.4276H148.863ZM148.071 11.0269C148.071 10.5772 147.987 10.1875 147.822 9.86374C147.657 9.53998 147.415 9.29716 147.1 9.12929C146.785 8.96441 146.392 8.88048 145.925 8.88048H141.254V13.3261H145.925C146.602 13.3261 147.127 13.1193 147.505 12.7056C147.879 12.2919 148.068 11.7313 148.068 11.0239L148.071 11.0269ZM166.822 11.1648C166.822 12.187 166.621 13.0803 166.222 13.8388C165.824 14.5972 165.242 15.1907 164.475 15.6104C163.707 16.0331 162.766 16.243 161.654 16.243H157.073V21.6359H153.71V6.15851H161.765C162.877 6.15851 163.806 6.36536 164.553 6.77905C165.299 7.19274 165.863 7.7713 166.246 8.51774C166.63 9.26119 166.822 10.1455 166.822 11.1678V11.1648ZM163.417 11.1857C163.417 10.6881 163.333 10.2774 163.168 9.94468C163.003 9.61492 162.757 9.35712 162.433 9.17725C162.11 8.99739 161.699 8.90746 161.204 8.90746H157.076V13.488H161.204C161.912 13.488 162.457 13.2842 162.841 12.8795C163.225 12.4718 163.417 11.9082 163.417 11.1857Z" fill="white"/>
</g>
<defs>
<clipPath id="clip0_2329_28495">
<rect width="175.069" height="27.2795" fill="white" transform="translate(0.653809 0.594681)"/>
</clipPath>
</defs>
</svg>
