<svg width="13" height="21" viewBox="0 0 13 21" fill="none" xmlns="http://www.w3.org/2000/svg">
<path d="M1.69885 20.1171C1.24174 20.1171 0.851241 19.9552 0.527352 19.6315C0.203616 19.3076 0.041748 18.9171 0.041748 18.46V2.52417C0.041748 2.0611 0.202165 1.66915 0.522998 1.34832C0.843831 1.02748 1.23578 0.867065 1.69885 0.867065H10.3366C10.7937 0.867065 11.1841 1.02893 11.5079 1.35267C11.8318 1.67656 11.9937 2.06706 11.9937 2.52417V5.41877C12.2452 5.48447 12.4549 5.61578 12.623 5.81271C12.7911 6.00949 12.8751 6.23835 12.8751 6.4993V8.22675C12.8751 8.4877 12.7911 8.71663 12.623 8.91357C12.4549 9.11034 12.2452 9.24166 11.9937 9.3075V18.46C11.9937 18.9171 11.8318 19.3076 11.5079 19.6315C11.1841 19.9552 10.7937 20.1171 10.3366 20.1171H1.69885ZM1.69885 18.7421H10.3366C10.4188 18.7421 10.4864 18.7156 10.5394 18.6628C10.5923 18.6099 10.6187 18.5423 10.6187 18.46V2.52417C10.6187 2.44182 10.5923 2.37422 10.5394 2.32136C10.4864 2.2685 10.4188 2.24207 10.3366 2.24207H1.69885C1.6165 2.24207 1.5489 2.2685 1.49604 2.32136C1.44318 2.37422 1.41675 2.44182 1.41675 2.52417V18.46C1.41675 18.5423 1.44318 18.6099 1.49604 18.6628C1.5489 18.7156 1.6165 18.7421 1.69885 18.7421ZM6.01773 17.4727C6.24812 17.4727 6.44085 17.3952 6.59591 17.2401C6.75098 17.085 6.82852 16.8923 6.82852 16.6619C6.82852 16.4315 6.75098 16.2388 6.59591 16.0837C6.44085 15.9287 6.24812 15.8511 6.01773 15.8511C5.78734 15.8511 5.59461 15.9287 5.43954 16.0837C5.28447 16.2388 5.20694 16.4315 5.20694 16.6619C5.20694 16.8923 5.28447 17.085 5.43954 17.2401C5.59461 17.3952 5.78734 17.4727 6.01773 17.4727Z" fill="#AAB3C5"/>
</svg>
