<svg width="17" height="16" viewBox="0 0 17 16" fill="none" xmlns="http://www.w3.org/2000/svg">
<path d="M8.49756 0.905762C8.36423 0.902024 8.25828 0.941911 8.15283 1.04736L8.146 1.05518L8.13721 1.06299C8.03812 1.15393 7.9913 1.25511 7.98682 1.39697C7.98321 1.53002 8.02312 1.63542 8.12842 1.74072L13.0278 6.64111L13.8813 7.49463H1.49951C1.34292 7.49467 1.23433 7.54117 1.14111 7.6333V7.63428C1.04778 7.72794 0.999512 7.83693 0.999512 7.99463C0.999594 8.15209 1.04746 8.26035 1.14014 8.35303C1.23386 8.4467 1.34253 8.49459 1.49951 8.49463H13.8813L8.12842 14.2476C8.06498 14.311 8.01931 14.3879 7.99854 14.4937L7.98682 14.6099C7.98304 14.7547 8.02541 14.8452 8.11279 14.9253L8.12842 14.9399L8.14307 14.9565C8.22706 15.0482 8.3249 15.0942 8.4751 15.0942C8.62584 15.0942 8.74026 15.0468 8.84619 14.9409L15.4458 8.34033C15.5011 8.28506 15.5287 8.238 15.5425 8.19971C15.5628 8.14136 15.5747 8.07412 15.5747 7.99463C15.5747 7.91489 15.5629 7.84705 15.5425 7.78857C15.5287 7.75028 15.5011 7.70322 15.4458 7.64795L8.84619 1.04736C8.75867 0.959923 8.65306 0.910788 8.49756 0.905762Z" fill="black" stroke="black"/>
</svg>
