<svg width="18" height="21" viewBox="0 0 18 21" fill="none" xmlns="http://www.w3.org/2000/svg">
<path d="M17.2016 9.87979C16.4712 9.02674 16.1392 8.28751 16.1392 7.03161V6.60458C16.1392 4.96799 15.7625 3.91352 14.9436 2.85905C13.6814 1.22144 11.5565 0.234451 9.47636 0.234451H9.3879C7.35148 0.234451 5.29319 1.17612 4.00912 2.74725C3.14546 3.82287 2.72505 4.92267 2.72505 6.60458V7.03161C2.72505 8.28751 2.41497 9.02674 1.66262 9.87979C1.10904 10.5082 0.932129 11.316 0.932129 12.1902C0.932129 13.0654 1.21935 13.8942 1.79579 14.568C2.54815 15.3757 3.61059 15.8914 4.69588 15.981C6.26718 16.1603 7.83847 16.2278 9.43263 16.2278C11.0258 16.2278 12.5971 16.115 14.1694 15.981C15.2537 15.8914 16.3161 15.3757 17.0685 14.568C17.6439 13.8942 17.9321 13.0654 17.9321 12.1902C17.9321 11.316 17.7552 10.5082 17.2016 9.87979Z" fill="#081735"/>
<path opacity="0.4" d="M11.4409 17.4628C10.941 17.3561 7.89479 17.3561 7.39488 17.4628C6.96752 17.5615 6.50537 17.7911 6.50537 18.2947C6.53022 18.7751 6.81148 19.1991 7.20107 19.468L7.20008 19.469C7.70397 19.8618 8.29532 20.1116 8.91449 20.2012C9.24445 20.2465 9.58038 20.2445 9.92227 20.2012C10.5404 20.1116 11.1318 19.8618 11.6357 19.469L11.6347 19.468C12.0243 19.1991 12.3055 18.7751 12.3304 18.2947C12.3304 17.7911 11.8682 17.5615 11.4409 17.4628Z" fill="#081735"/>
</svg>
