<svg width="12" height="17" viewBox="0 0 12 17" fill="none" xmlns="http://www.w3.org/2000/svg">
<path d="M2.08995 16.1511C1.66898 16.1511 1.31266 16.0053 1.021 15.7136C0.729329 15.422 0.583496 15.0656 0.583496 14.6447V6.688C0.583496 6.26702 0.729329 5.9107 1.021 5.61904C1.31266 5.32737 1.66898 5.18154 2.08995 5.18154H9.91037C10.3313 5.18154 10.6877 5.32737 10.9793 5.61904C11.271 5.9107 11.4168 6.26702 11.4168 6.688V14.6447C11.4168 15.0656 11.271 15.422 10.9793 15.7136C10.6877 16.0053 10.3313 16.1511 9.91037 16.1511H2.08995ZM5.64766 13.8355H6.35266C6.451 13.8355 6.53704 13.7986 6.61079 13.7249C6.6844 13.6511 6.7212 13.5651 6.7212 13.4667C6.7212 13.3686 6.6844 13.2826 6.61079 13.2088C6.53704 13.1351 6.451 13.0982 6.35266 13.0982H5.64766C5.54933 13.0982 5.46329 13.1351 5.38954 13.2088C5.31593 13.2826 5.27912 13.3686 5.27912 13.4667C5.27912 13.5651 5.31593 13.6511 5.38954 13.7249C5.46329 13.7986 5.54933 13.8355 5.64766 13.8355ZM5.54183 12.2649H6.4585C6.52794 12.2649 6.58773 12.2384 6.63787 12.1855C6.68815 12.1327 6.71759 12.0716 6.7262 12.0022C6.76023 11.7962 6.82829 11.6013 6.93037 11.4174C7.03245 11.2335 7.13905 11.0486 7.25016 10.8626C7.39544 10.6426 7.52655 10.4118 7.6435 10.1703C7.76058 9.9289 7.81912 9.6757 7.81912 9.4107C7.81912 8.90834 7.64329 8.48251 7.29162 8.1332C6.93995 7.78404 6.50947 7.60945 6.00016 7.60945C5.48863 7.60945 5.05627 7.78334 4.70308 8.13112C4.34988 8.4789 4.17329 8.90543 4.17329 9.4107C4.17329 9.6739 4.23391 9.92452 4.35516 10.1626C4.47641 10.4006 4.60544 10.6297 4.74225 10.8499C4.85336 11.0357 4.95884 11.2241 5.0587 11.4151C5.15857 11.6061 5.22613 11.8044 5.26141 12.0101C5.28377 12.0795 5.31877 12.1394 5.36641 12.1897C5.41391 12.2398 5.47238 12.2649 5.54183 12.2649ZM1.8735 3.73924C1.73002 3.73924 1.61134 3.69237 1.51745 3.59862C1.4237 3.50487 1.37683 3.38626 1.37683 3.24279C1.37683 3.09945 1.4237 2.98077 1.51745 2.88675C1.61134 2.79272 1.73002 2.7457 1.8735 2.7457H10.1187C10.2622 2.7457 10.3809 2.79258 10.4747 2.88633C10.5686 2.98008 10.6156 3.09869 10.6156 3.24216C10.6156 3.3855 10.5686 3.50418 10.4747 3.5982C10.3809 3.69223 10.2622 3.73924 10.1187 3.73924H1.8735ZM2.67495 1.31133C2.53134 1.31133 2.41266 1.26445 2.31891 1.1707C2.22502 1.07695 2.17808 0.958412 2.17808 0.815079C2.17808 0.671606 2.22502 0.552857 2.31891 0.458829C2.41266 0.364801 2.53134 0.317787 2.67495 0.317787H9.31745C9.46093 0.317787 9.57961 0.364662 9.6735 0.458412C9.76738 0.552162 9.81433 0.670774 9.81433 0.814246C9.81433 0.957579 9.76738 1.07626 9.6735 1.17029C9.57961 1.26431 9.46093 1.31133 9.31745 1.31133H2.67495Z" fill="#F7FAFF"/>
</svg>
