<svg width="17" height="16" viewBox="0 0 17 16" fill="none" xmlns="http://www.w3.org/2000/svg">
<path d="M7.7998 15.2942L1.1998 8.69422C1.0998 8.59422 1.0288 8.48589 0.986804 8.36922C0.945471 8.25256 0.924805 8.12756 0.924805 7.99422C0.924805 7.86089 0.945471 7.73589 0.986804 7.61922C1.0288 7.50256 1.0998 7.39422 1.1998 7.29422L7.7998 0.694223C7.98314 0.51089 8.21214 0.41489 8.4868 0.406223C8.76214 0.398223 8.9998 0.494223 9.1998 0.694223C9.3998 0.877556 9.50414 1.10656 9.5128 1.38122C9.52081 1.65656 9.4248 1.89422 9.2248 2.09422L4.3248 6.99422H15.4998C15.7831 6.99422 16.0208 7.08989 16.2128 7.28122C16.4041 7.47322 16.4998 7.71089 16.4998 7.99422C16.4998 8.27756 16.4041 8.51489 16.2128 8.70622C16.0208 8.89822 15.7831 8.99422 15.4998 8.99422H4.3248L9.2248 13.8942C9.40814 14.0776 9.50414 14.3109 9.5128 14.5942C9.52081 14.8776 9.4248 15.1109 9.2248 15.2942C9.04147 15.4942 8.80814 15.5942 8.52481 15.5942C8.24147 15.5942 7.9998 15.4942 7.7998 15.2942Z" fill="black"/>
</svg>
