<svg width="21" height="21" viewBox="0 0 21 21" fill="none" xmlns="http://www.w3.org/2000/svg">
<path d="M8.73447 17.5409C13.4837 17.5409 17.3337 13.6667 17.3337 8.8877C17.3337 4.10864 13.4837 0.234451 8.73447 0.234451C3.98526 0.234451 0.135254 4.10864 0.135254 8.8877C0.135254 13.6667 3.98526 17.5409 8.73447 17.5409Z" fill="#081735"/>
<path opacity="0.4" d="M18.8098 20.1897C18.4757 20.1789 18.1581 20.0415 17.9205 19.8049L15.8841 17.4246C15.4475 17.0253 15.4118 16.3468 15.8041 15.9034C15.9877 15.7176 16.2373 15.6131 16.4977 15.6131C16.7581 15.6131 17.0077 15.7176 17.1913 15.9034L19.7524 17.9526C20.1213 18.3302 20.2352 18.8907 20.043 19.3837C19.8509 19.8766 19.3888 20.2099 18.8631 20.2345L18.8098 20.1897Z" fill="#081735"/>
</svg>
