<svg width="21" height="20" viewBox="0 0 21 20" fill="none" xmlns="http://www.w3.org/2000/svg">
<path d="M9.09922 17.3065C13.8484 17.3065 17.6984 13.4323 17.6984 8.65324C17.6984 3.87419 13.8484 0 9.09922 0C4.35 0 0.5 3.87419 0.5 8.65324C0.5 13.4323 4.35 17.3065 9.09922 17.3065Z" fill="#6B7397"/>
<path opacity="0.4" d="M19.1745 19.9555C18.8405 19.9447 18.5228 19.8073 18.2853 19.5707L16.2488 17.1904C15.8122 16.7912 15.7765 16.1126 16.1688 15.6692C16.3524 15.4834 16.602 15.3789 16.8624 15.3789C17.1228 15.3789 17.3725 15.4834 17.5561 15.6692L20.1172 17.7184C20.4861 18.096 20.5999 18.6565 20.4078 19.1495C20.2157 19.6424 19.7535 19.9757 19.2279 20.0003L19.1745 19.9555Z" fill="#6B7397"/>
</svg>
