<svg width="21" height="20" viewBox="0 0 21 20" fill="none" xmlns="http://www.w3.org/2000/svg">
<path opacity="0.4" fill-rule="evenodd" clip-rule="evenodd" d="M10.7085 2.32056C4.71016 2.32056 2.5835 4.44722 2.5835 10.4456C2.5835 16.4439 4.71016 18.5706 10.7085 18.5706C16.7068 18.5706 18.8335 16.4439 18.8335 10.4456C18.8335 4.44722 16.7068 2.32056 10.7085 2.32056Z" fill="#081735"/>
<path d="M10.1593 12.8646L14.1177 8.90956C14.3618 8.66539 14.3618 8.26957 14.1177 8.0254C13.8735 7.78207 13.4777 7.78124 13.2335 8.0254L9.71767 11.5387L8.1835 10.0029C7.94017 9.76039 7.54434 9.75873 7.29934 10.0029C7.05517 10.2471 7.05517 10.6429 7.29934 10.8871L9.27517 12.8646C9.39267 12.9821 9.55184 13.0479 9.71767 13.0479C9.8835 13.0479 10.0418 12.9821 10.1593 12.8646Z" fill="#081735"/>
</svg>
