<svg width="22" height="20" viewBox="0 0 22 20" fill="none" xmlns="http://www.w3.org/2000/svg">
<path d="M0.348633 5.68468H21.9953V2.21994C21.9953 1.74032 21.8274 1.33264 21.4917 0.996907C21.156 0.661383 20.7484 0.493622 20.269 0.493622H2.07495C1.59554 0.493622 1.18797 0.661383 0.852236 0.996907C0.516501 1.33264 0.348633 1.74032 0.348633 2.21994V5.68468ZM0.348633 12.7861H21.9953V7.59468H0.348633V12.7861ZM2.07495 19.8871H20.269C20.7484 19.8871 21.156 19.7194 21.4917 19.3838C21.8274 19.0481 21.9953 18.6404 21.9953 18.1608V14.6961H0.348633V18.1608C0.348633 18.6404 0.516501 19.0481 0.852236 19.3838C1.18797 19.7194 1.59554 19.8871 2.07495 19.8871ZM3.26043 4.24009C2.93382 4.24009 2.66069 4.12952 2.44104 3.90838C2.2216 3.68746 2.11188 3.41369 2.11188 3.08708C2.11188 2.76026 2.22234 2.48713 2.44327 2.26769C2.66419 2.04804 2.93806 1.93822 3.26488 1.93822C3.59149 1.93822 3.86462 2.04868 4.08427 2.2696C4.30371 2.49074 4.41343 2.76461 4.41343 3.09122C4.41343 3.41804 4.30297 3.69117 4.08205 3.91061C3.86112 4.13026 3.58725 4.24009 3.26043 4.24009ZM3.26043 11.3411C2.93382 11.3411 2.66069 11.2307 2.44104 11.0098C2.2216 10.7888 2.11188 10.515 2.11188 10.1881C2.11188 9.86153 2.22234 9.5884 2.44327 9.36875C2.66419 9.14932 2.93806 9.0396 3.26488 9.0396C3.59149 9.0396 3.86462 9.15006 4.08427 9.37098C4.30371 9.59191 4.41343 9.86578 4.41343 10.1926C4.41343 10.5192 4.30297 10.7923 4.08205 11.012C3.86112 11.2314 3.58725 11.3411 3.26043 11.3411ZM3.26043 18.4425C2.93382 18.4425 2.66069 18.3321 2.44104 18.1111C2.2216 17.89 2.11188 17.6161 2.11188 17.2895C2.11188 16.9627 2.22234 16.6896 2.44327 16.4701C2.66419 16.2505 2.93806 16.1407 3.26488 16.1407C3.59149 16.1407 3.86462 16.2512 4.08427 16.4724C4.30371 16.6933 4.41343 16.9671 4.41343 17.2937C4.41343 17.6205 4.30297 17.8936 4.08205 18.1131C3.86112 18.3327 3.58725 18.4425 3.26043 18.4425Z" fill="#FFCE73"/>
</svg>
