<svg width="22" height="20" viewBox="0 0 22 20" fill="none" xmlns="http://www.w3.org/2000/svg">
<path d="M3.90335 19.5177C2.92492 19.5177 2.09328 19.1753 1.40844 18.4905C0.723387 17.8056 0.380859 16.9739 0.380859 15.9952C0.380859 15.0168 0.723387 14.1852 1.40844 13.5003C2.09328 12.8153 2.92492 12.4727 3.90335 12.4727C4.88179 12.4727 5.71353 12.8153 6.39859 13.5003C7.08343 14.1852 7.42585 15.0168 7.42585 15.9952C7.42585 16.9739 7.08343 17.8056 6.39859 18.4905C5.71353 19.1753 4.88179 19.5177 3.90335 19.5177ZM18.2934 19.5177C17.315 19.5177 16.4832 19.1753 15.7982 18.4905C15.1133 17.8056 14.7709 16.9739 14.7709 15.9952C14.7709 15.0168 15.1133 14.1852 15.7982 13.5003C16.4832 12.8153 17.315 12.4727 18.2934 12.4727C19.2719 12.4727 20.1035 12.8153 20.7883 13.5003C21.4734 14.1852 21.8159 15.0168 21.8159 15.9952C21.8159 16.9739 21.4734 17.8056 20.7883 18.4905C20.1035 19.1753 19.2719 19.5177 18.2934 19.5177ZM11.0984 7.52643C10.12 7.52643 9.28821 7.18391 8.60315 6.49885C7.91831 5.81401 7.57589 4.98238 7.57589 4.00394C7.57589 3.02529 7.91831 2.19354 8.60315 1.5087C9.28821 0.823865 10.12 0.481445 11.0984 0.481445C12.0768 0.481445 12.9086 0.823865 13.5936 1.5087C14.2785 2.19354 14.6209 3.02529 14.6209 4.00394C14.6209 4.98238 14.2785 5.81401 13.5936 6.49885C12.9086 7.18391 12.0768 7.52643 11.0984 7.52643Z" fill="#2C73DB"/>
</svg>
