<svg width="23" height="21" viewBox="0 0 23 21" fill="none" xmlns="http://www.w3.org/2000/svg">
<path d="M3.086 17.467V18.6668C3.086 19.041 2.95495 19.359 2.69285 19.6209C2.43076 19.8828 2.11243 20.0137 1.73785 20.0137C1.36349 20.0137 1.04569 19.8828 0.784446 19.6209C0.523201 19.359 0.392578 19.041 0.392578 18.6668V9.68505C0.392578 9.55284 0.401173 9.42062 0.418363 9.28841C0.435553 9.1562 0.464415 9.0295 0.50495 8.90832L2.78517 2.46143C2.93776 2.00282 3.21428 1.63026 3.61475 1.34376C4.01521 1.05705 4.46342 0.913696 4.95939 0.913696H17.4724C17.9684 0.913696 18.4166 1.05705 18.8171 1.34376C19.2175 1.63026 19.4941 2.00282 19.6467 2.46143L21.9269 8.90832C21.9674 9.0295 21.9963 9.1562 22.0135 9.28841C22.0306 9.42062 22.0392 9.55284 22.0392 9.68505V18.6668C22.0392 19.041 21.9082 19.359 21.6461 19.6209C21.3838 19.8828 21.0655 20.0137 20.6911 20.0137C20.3165 20.0137 19.9986 19.8828 19.7374 19.6209C19.4763 19.359 19.3458 19.041 19.3458 18.6668V17.467H3.086ZM3.07645 7.37841H19.3554L17.8471 3.08091C17.8144 2.9992 17.7654 2.93596 17.7 2.89118C17.6347 2.84619 17.5571 2.8237 17.4673 2.8237H4.96448C4.87471 2.8237 4.79714 2.84619 4.73178 2.89118C4.66642 2.93596 4.61739 2.9992 4.58471 3.08091L3.07645 7.37841ZM5.43975 14.0879C5.90303 14.0879 6.29596 13.9257 6.61854 13.6012C6.94091 13.2769 7.10209 12.8831 7.10209 12.4199C7.10209 11.9566 6.93995 11.5636 6.61568 11.2411C6.29119 10.9187 5.8973 10.7575 5.43402 10.7575C4.97074 10.7575 4.57792 10.9197 4.25555 11.2439C3.93298 11.5684 3.77169 11.9623 3.77169 12.4256C3.77169 12.8889 3.93393 13.2817 4.25842 13.6041C4.58269 13.9266 4.97647 14.0879 5.43975 14.0879ZM16.9978 14.0879C17.4611 14.0879 17.8539 13.9257 18.1763 13.6012C18.4988 13.2769 18.6601 12.8831 18.6601 12.4199C18.6601 11.9566 18.4979 11.5636 18.1734 11.2411C17.8491 10.9187 17.4554 10.7575 16.9921 10.7575C16.5288 10.7575 16.1359 10.9197 15.8133 11.2439C15.4909 11.5684 15.3297 11.9623 15.3297 12.4256C15.3297 12.8889 15.4919 13.2817 15.8161 13.6041C16.1406 13.9266 16.5345 14.0879 16.9978 14.0879Z" fill="#2C8436"/>
</svg>
